<svg xmlns="http://www.w3.org/2000/svg" width="15.427" height="17.487" viewBox="0 0 15.427 17.487">
    <defs>
        <style>
            .prefix__cls-1{fill:red}
        </style>
    </defs>
    <g id="prefix__Component_17_2" data-name="Component 17 – 2">
        <path id="prefix__Path_124" d="M1591.282 462.845a.179.179 0 0 0-.2.156c-.014.116-1.349 11.566-1.464 12.7-.078.768-.142 1.148-.389 1.309a4.27 4.27 0 0 1-1.84.177h-5.1a4.269 4.269 0 0 1-1.84-.177c-.247-.161-.311-.541-.389-1.309-.115-1.129-1.451-12.579-1.464-12.7a.181.181 0 0 0-.2-.156.179.179 0 0 0-.156.2c.013.115 1.349 11.562 1.463 12.689.179 1.756.387 1.806 2.584 1.806h5.1c2.2 0 2.4-.05 2.583-1.806.115-1.127 1.45-12.574 1.463-12.689a.178.178 0 0 0-.151-.2z" class="prefix__cls-1" data-name="Path 124" transform="translate(-1577.076 -460.051)"/>
        <path id="prefix__Path_125" d="M1582.4 474.8h.019a.178.178 0 0 0 .159-.2l-.978-9.6a.178.178 0 1 0-.354.036l.978 9.6a.178.178 0 0 0 .176.164z" class="prefix__cls-1" data-name="Path 125" transform="translate(-1577.076 -460.051)"/>
        <path id="prefix__Path_126" d="M1587.209 474.8a.178.178 0 0 0 .177-.16l.978-9.6a.178.178 0 0 0-.354-.036l-.978 9.6a.178.178 0 0 0 .159.2z" class="prefix__cls-1" data-name="Path 126" transform="translate(-1577.076 -460.051)"/>
        <path id="prefix__Path_127" d="M1592.325 461.725h-5.258a2.51 2.51 0 0 0-4.733 0h-5.079a.178.178 0 1 0 0 .356h15.07a.178.178 0 1 0 0-.356zm-7.625-1.357a2.023 2.023 0 0 1 2.042 1.357h-4.083a2.022 2.022 0 0 1 2.041-1.357z" class="prefix__cls-1" data-name="Path 127" transform="translate(-1577.076 -460.051)"/>
        <path id="prefix__Path_128" d="M1585.011 474.9v-10.51a.178.178 0 1 0-.356 0v10.51a.178.178 0 1 0 .356 0z" class="prefix__cls-1" data-name="Path 128" transform="translate(-1577.076 -460.051)"/>
    </g>
</svg>
