<svg xmlns="http://www.w3.org/2000/svg" width="15.427" height="17.487" viewBox="0 0 15.427 17.487">
    <defs>
        <style>
            .prefix__cls-1{fill:#666}
        </style>
    </defs>
    <g id="prefix__Component_14_2" data-name="Component 14 – 2">
        <path id="prefix__Path_110" d="M1591.282 391.127a.178.178 0 0 0-.2.156c-.014.116-1.349 11.565-1.464 12.694-.078.769-.142 1.148-.389 1.31a4.27 4.27 0 0 1-1.84.177h-5.1a4.269 4.269 0 0 1-1.84-.177c-.247-.162-.311-.541-.389-1.31-.115-1.129-1.451-12.578-1.464-12.694a.18.18 0 0 0-.2-.156.178.178 0 0 0-.156.2c.013.116 1.349 11.563 1.463 12.689.179 1.756.387 1.807 2.584 1.807h5.1c2.2 0 2.4-.051 2.583-1.807.115-1.126 1.45-12.573 1.463-12.689a.177.177 0 0 0-.151-.2z" class="prefix__cls-1" data-name="Path 110" transform="translate(-1577.076 -388.333)"/>
        <path id="prefix__Path_111" d="M1582.4 403.076h.019a.178.178 0 0 0 .159-.2l-.978-9.6a.178.178 0 0 0-.354.036l.978 9.6a.177.177 0 0 0 .176.164z" class="prefix__cls-1" data-name="Path 111" transform="translate(-1577.076 -388.333)"/>
        <path id="prefix__Path_112" d="M1587.209 403.076a.177.177 0 0 0 .177-.16l.978-9.6a.178.178 0 0 0-.354-.036l-.978 9.6a.177.177 0 0 0 .159.2z" class="prefix__cls-1" data-name="Path 112" transform="translate(-1577.076 -388.333)"/>
        <path id="prefix__Path_113" d="M1592.325 390.006h-5.258a2.51 2.51 0 0 0-4.733 0h-5.079a.178.178 0 1 0 0 .356h15.07a.178.178 0 1 0 0-.356zm-7.625-1.356a2.022 2.022 0 0 1 2.042 1.356h-4.083a2.021 2.021 0 0 1 2.041-1.356z" class="prefix__cls-1" data-name="Path 113" transform="translate(-1577.076 -388.333)"/>
        <path id="prefix__Path_114" d="M1585.011 402.186v-10.514a.178.178 0 1 0-.356 0v10.514a.178.178 0 1 0 .356 0z" class="prefix__cls-1" data-name="Path 114" transform="translate(-1577.076 -388.333)"/>
    </g>
</svg>
