<svg xmlns="http://www.w3.org/2000/svg" width="16.414" height="15.825" viewBox="0 0 16.414 15.825">
    <defs>
        <style>
            .prefix__cls-1{fill:#666}
        </style>
    </defs>
    <g id="prefix__Component_15_2" data-name="Component 15 – 2">
        <path id="prefix__Path_115" d="M1522.16 396.58v7.605a1.44 1.44 0 0 1-1.438 1.438h-9.641a1.44 1.44 0 0 1-1.438-1.438v-12.217a1.44 1.44 0 0 1 1.438-1.439h9.641a1.378 1.378 0 0 1 .989.4c.274.265.516.024.263-.254a1.819 1.819 0 0 0-1.252-.508h-9.641a1.806 1.806 0 0 0-1.8 1.8v12.217a1.806 1.806 0 0 0 1.8 1.8h9.641a1.806 1.806 0 0 0 1.8-1.8v-7.554c.004-.458-.362-.358-.362-.05z" class="prefix__cls-1" data-name="Path 115" transform="translate(-1509.278 -390.164)"/>
        <path id="prefix__Path_116" d="M1525.431 390.653a1.064 1.064 0 0 0-.868-.33 1.537 1.537 0 0 0-.933.41l-7.4 6.835a.244.244 0 0 0-.029.027l-.019.018a.334.334 0 0 0-.05.081l-.726 1.644-.414.923.9-.319 1.753-.586a.341.341 0 0 0 .085-.043l7.454-6.881a1.287 1.287 0 0 0 .247-1.779zm-9.208 8.795l-.316-.344.531-1.205 1.032 1.132zm7.306-8.125l1.063 1.166-6.837 6.312-1.063-1.166zm1.41.846l-.079.072-1.062-1.166.079-.073a1.168 1.168 0 0 1 .707-.314.7.7 0 0 1 .577.211.929.929 0 0 1-.222 1.27z" class="prefix__cls-1" data-name="Path 116" transform="translate(-1509.278 -390.164)"/>
    </g>
</svg>
