<svg xmlns="http://www.w3.org/2000/svg" width="16.414" height="15.825" viewBox="0 0 16.414 15.825">
    <defs>
        <style>
            .prefix__cls-1{fill:#00aa3d}
        </style>
    </defs>
    <g id="prefix__Component_16_2" data-name="Component 16 – 2">
        <path id="prefix__Path_129" d="M1522.16 468.3v7.6a1.44 1.44 0 0 1-1.438 1.438h-9.641a1.44 1.44 0 0 1-1.438-1.438v-12.214a1.44 1.44 0 0 1 1.438-1.438h9.641a1.374 1.374 0 0 1 .989.4c.274.264.516.024.263-.255a1.819 1.819 0 0 0-1.252-.508h-9.641a1.806 1.806 0 0 0-1.8 1.8V475.9a1.806 1.806 0 0 0 1.8 1.8h9.641a1.806 1.806 0 0 0 1.8-1.8v-7.554c.004-.455-.362-.356-.362-.046z" class="prefix__cls-1" data-name="Path 129" transform="translate(-1509.278 -461.882)"/>
        <path id="prefix__Path_130" d="M1525.431 462.372a1.062 1.062 0 0 0-.868-.331 1.537 1.537 0 0 0-.933.41l-7.4 6.835a.385.385 0 0 0-.029.028l-.019.017a.334.334 0 0 0-.05.081l-.726 1.645-.414.923.9-.319 1.753-.586a.378.378 0 0 0 .085-.043l7.454-6.881a1.286 1.286 0 0 0 .247-1.779zm-9.208 8.794l-.316-.344.531-1.2 1.032 1.132zm7.306-8.124l1.063 1.165-6.837 6.312-1.063-1.166zm1.41.845l-.079.072-1.062-1.165.079-.074a1.174 1.174 0 0 1 .707-.314.707.707 0 0 1 .577.212.928.928 0 0 1-.222 1.269z" class="prefix__cls-1" data-name="Path 130" transform="translate(-1509.278 -461.882)"/>
    </g>
</svg>
