<svg xmlns="http://www.w3.org/2000/svg" id="prefix__Header_Button_2" width="23.326" height="29.747" data-name="Header Button 2" viewBox="0 0 23.326 29.747">
    <path id="prefix__Path_139" fill="#fff" d="M1636.422 37.724l-.033-.015-.03-.02a5.243 5.243 0 0 1-1.635-2.187c-1.292-2.734-1.564-6.545-1.564-9.261a8.247 8.247 0 0 0-4.839-7.488l-.3-.135v-2.411a2.919 2.919 0 0 0-2.913-2.918h-.284a2.919 2.919 0 0 0-2.913 2.918v2.411l-.3.135a8.232 8.232 0 0 0-4.84 7.488c0 2.716-.271 6.527-1.563 9.261a5.243 5.243 0 0 1-1.635 2.187l-.03.02-.033.015a.369.369 0 0 0-.2.43.409.409 0 0 0 .406.3h7.108l.008.5a4.132 4.132 0 0 0 8.263 0l.007-.5h7.108a.409.409 0 0 0 .406-.3.37.37 0 0 0-.194-.43zM1622.7 17.7v-1.5a2.131 2.131 0 0 1 2.127-2.13h.284a2.131 2.131 0 0 1 2.127 2.13v2.122l-.611-.127a8.266 8.266 0 0 0-3.316 0l-.611.127zm5.615 21.272a3.347 3.347 0 0 1-6.692 0l-.013-.521h6.717zm5.846-1.309h-19.315l.5-.783a8.878 8.878 0 0 0 .448-.785c1.171-2.31 1.765-5.627 1.765-9.858a7.408 7.408 0 1 1 14.815 0c0 4.247.6 7.552 1.767 9.855.141.279.292.543.446.785l.5.783z" data-name="Path 139" transform="translate(-1613.304 -13.289)"/>
</svg>
