<svg xmlns="http://www.w3.org/2000/svg" id="prefix__Component_1_1" width="162.03" height="54.058" data-name="Component 1 – 1" viewBox="0 0 162.03 54.058">
    <defs>
        <style>
            .prefix__cls-2{fill:#fff}
        </style>
    </defs>
    <path id="prefix__Rectangle_91" d="M0 0H162.03V54.058H0z" data-name="Rectangle 91" style="fill:red"/>
    <g id="prefix__Group_177" data-name="Group 177" transform="translate(-419.102)">
        <path id="prefix__Path_153" d="M439.006 22.528a6 6 0 0 1 4.32 1.646v-1.261h4.552V36.1h-4.5v-1.487h-.052a5.839 5.839 0 0 1-4.32 1.878c-3.857 0-6.557-3.112-6.557-6.969s2.7-6.994 6.557-6.994zm1.363 10.08a2.965 2.965 0 0 0 3.06-3.086 3.073 3.073 0 1 0-6.146 0 2.943 2.943 0 0 0 3.086 3.086z" class="prefix__cls-2" data-name="Path 153"/>
        <path id="prefix__Path_154" d="M450.964 22.913h4.552v1.9h.051a5.168 5.168 0 0 1 4.037-2.288 5.461 5.461 0 0 1 2.88.823l-1.9 3.857a3.844 3.844 0 0 0-2.366-.72 2.735 2.735 0 0 0-2.7 2.674V36.1h-4.552z" class="prefix__cls-2" data-name="Path 154"/>
        <path id="prefix__Path_155" d="M467.5 29.5a3.2 3.2 0 0 0 3.137 3.266 4.017 4.017 0 0 0 2.212-.617l1.542 3.163a7.456 7.456 0 0 1-4.423 1.183 7.264 7.264 0 0 1-7.3-6.943 7.591 7.591 0 0 1 11.726-5.786l-1.542 3.112a4.012 4.012 0 0 0-2.212-.618 3.189 3.189 0 0 0-3.14 3.24z" class="prefix__cls-2" data-name="Path 155"/>
        <path id="prefix__Path_156" d="M478.429 18h4.552v4.911h2.777v3.472h-2.777v4.191c0 1.235.308 1.826 1.028 1.826a2.148 2.148 0 0 0 1.131-.411l1.132 3.677a7.533 7.533 0 0 1-3.343.823c-3.625 0-4.5-2.7-4.5-5.04v-5.064h-1.9v-3.472h1.9z" class="prefix__cls-2" data-name="Path 156"/>
        <path id="prefix__Path_157" d="M493.884 17.462a2.7 2.7 0 1 1-2.7-2.7 2.7 2.7 0 0 1 2.7 2.7zm-5.04 18.638h4.551V22.913h-4.551z" class="prefix__cls-2" data-name="Path 157"/>
        <path id="prefix__Path_158" d="M500.493 29.5a3.2 3.2 0 0 0 3.137 3.266 4.017 4.017 0 0 0 2.212-.617l1.542 3.163a7.454 7.454 0 0 1-4.422 1.183 7.263 7.263 0 0 1-7.3-6.943 7.59 7.59 0 0 1 11.725-5.786l-1.542 3.112a4.012 4.012 0 0 0-2.212-.618 3.189 3.189 0 0 0-3.14 3.24z" class="prefix__cls-2" data-name="Path 158"/>
        <path id="prefix__Path_159" d="M517.286 22.913h4.551v1.9h.052a5.168 5.168 0 0 1 4.037-2.288 5.465 5.465 0 0 1 2.88.823l-1.9 3.857a3.84 3.84 0 0 0-2.366-.72 2.736 2.736 0 0 0-2.7 2.674V36.1h-4.551z" class="prefix__cls-2" data-name="Path 159"/>
        <path id="prefix__Path_160" d="M536.161 17.462a2.7 2.7 0 1 1-2.7-2.7 2.7 2.7 0 0 1 2.7 2.7zM531.122 36.1h4.551V22.913h-4.551z" class="prefix__cls-2" data-name="Path 160"/>
        <path id="prefix__Path_161" d="M543.081 29.5a3.2 3.2 0 0 0 3.137 3.266 4.017 4.017 0 0 0 2.212-.617l1.542 3.163a7.454 7.454 0 0 1-4.422 1.183 7.264 7.264 0 0 1-7.3-6.943 7.591 7.591 0 0 1 11.726-5.786l-1.542 3.112a4.012 4.012 0 0 0-2.212-.618 3.189 3.189 0 0 0-3.141 3.24z" class="prefix__cls-2" data-name="Path 161"/>
        <path id="prefix__Path_162" d="M552.339 13.99h4.551V24.3h.052a5.459 5.459 0 0 1 3.78-1.774c2.417 0 5.786 1.208 5.786 4.885V36.1h-4.552v-7.452a2.438 2.438 0 0 0-2.366-2.571 2.807 2.807 0 0 0-2.7 2.571V36.1h-4.551z" class="prefix__cls-2" data-name="Path 162"/>
    </g>
</svg>
