<svg xmlns="http://www.w3.org/2000/svg" id="prefix__Logo" width="109.606" height="19.711" viewBox="0 0 109.606 19.711">
    <defs>
        <style>
            .prefix__cls-1{fill:red}
        </style>
    </defs>
    <path id="prefix__Path_46" d="M450.689 149.081a4.728 4.728 0 0 1 3.532 1.442v-1.1h3.722v11.557h-3.679v-1.307h-.043a4.637 4.637 0 0 1-3.532 1.644c-3.153 0-5.361-2.726-5.361-6.105s2.208-6.131 5.361-6.131zm1.115 8.831a2.517 2.517 0 0 0 2.5-2.7 2.521 2.521 0 1 0-5.025 0 2.5 2.5 0 0 0 2.521 2.7z" class="prefix__cls-1" data-name="Path 46" transform="translate(-445.328 -141.602)"/>
    <path id="prefix__Path_47" d="M460.466 149.419h3.722v1.667h.042a4.211 4.211 0 0 1 3.3-2.005 4.269 4.269 0 0 1 2.355.721l-1.555 3.379a3.015 3.015 0 0 0-1.935-.631c-1.934 0-2.207 2.05-2.207 2.343v6.083h-3.722z" class="prefix__cls-1" data-name="Path 47" transform="translate(-445.328 -141.602)"/>
    <path id="prefix__Path_48" d="M473.986 155.186a2.718 2.718 0 0 0 2.564 2.861 3.136 3.136 0 0 0 1.809-.541l1.261 2.771a5.824 5.824 0 0 1-3.62 1.036 6.118 6.118 0 0 1 0-12.232 5.67 5.67 0 0 1 3.616 1.081l-1.261 2.726a3.139 3.139 0 0 0-1.809-.54 2.711 2.711 0 0 0-2.56 2.838z" class="prefix__cls-1" data-name="Path 48" transform="translate(-445.328 -141.602)"/>
    <path id="prefix__Path_49" d="M482.921 145.116h3.722v4.3h2.27v3.041h-2.27v3.672c0 1.081.252 1.6.841 1.6a1.7 1.7 0 0 0 .925-.361l.925 3.221a5.851 5.851 0 0 1-2.733.721c-2.965 0-3.68-2.365-3.68-4.415v-4.435h-1.555v-3.041h1.555z" class="prefix__cls-1" data-name="Path 49" transform="translate(-445.328 -141.602)"/>
    <path id="prefix__Path_50" d="M495.557 144.643a2.213 2.213 0 1 1-2.207-2.365 2.29 2.29 0 0 1 2.207 2.365zm-4.12 16.333h3.721v-11.557h-3.721z" class="prefix__cls-1" data-name="Path 50" transform="translate(-445.328 -141.602)"/>
    <path id="prefix__Path_51" d="M500.961 155.186a2.718 2.718 0 0 0 2.565 2.861 3.134 3.134 0 0 0 1.808-.541l1.261 2.771a5.824 5.824 0 0 1-3.616 1.036 6.118 6.118 0 0 1 0-12.232 5.67 5.67 0 0 1 3.616 1.081l-1.261 2.726a3.138 3.138 0 0 0-1.808-.54 2.711 2.711 0 0 0-2.565 2.838z" class="prefix__cls-1" data-name="Path 51" transform="translate(-445.328 -141.602)"/>
    <path id="prefix__Path_52" d="M514.69 149.419h3.722v1.667h.042a4.211 4.211 0 0 1 3.3-2.005 4.268 4.268 0 0 1 2.355.721l-1.555 3.379a3.015 3.015 0 0 0-1.935-.631c-1.934 0-2.207 2.05-2.207 2.343v6.083h-3.722z" class="prefix__cls-1" data-name="Path 52" transform="translate(-445.328 -141.602)"/>
    <path id="prefix__Path_53" d="M530.123 144.643a2.213 2.213 0 1 1-2.208-2.365 2.29 2.29 0 0 1 2.208 2.365zM526 160.976h3.72v-11.557H526z" class="prefix__cls-1" data-name="Path 53" transform="translate(-445.328 -141.602)"/>
    <path id="prefix__Path_54" d="M535.78 155.186a2.719 2.719 0 0 0 2.565 2.861 3.131 3.131 0 0 0 1.808-.541l1.262 2.771a5.827 5.827 0 0 1-3.616 1.036 6.118 6.118 0 0 1 0-12.232 5.673 5.673 0 0 1 3.616 1.081l-1.262 2.726a3.134 3.134 0 0 0-1.808-.54 2.711 2.711 0 0 0-2.565 2.838z" class="prefix__cls-1" data-name="Path 54" transform="translate(-445.328 -141.602)"/>
    <path id="prefix__Path_55" d="M543.349 141.6h3.722v9.033h.042a4.349 4.349 0 0 1 3.091-1.554c1.976 0 4.73 1.059 4.73 4.28v7.615h-3.721v-6.534a2.083 2.083 0 0 0-1.935-2.252 2.372 2.372 0 0 0-2.207 2.252v6.534h-3.722z" class="prefix__cls-1" data-name="Path 55" transform="translate(-445.328 -141.602)"/>
</svg>
