<svg xmlns="http://www.w3.org/2000/svg" id="prefix__Success" width="140.536" height="27.23" viewBox="0 0 140.536 27.23">
    <defs>
        <style>
            .prefix__cls-1{fill:#00bf11}
        </style>
    </defs>
    <path id="prefix__Path_11" d="M433.034 1225.443a3.356 3.356 0 0 0 .63 1.7 3.674 3.674 0 0 0 2.947 1.022 6.323 6.323 0 0 0 2.029-.27 1.926 1.926 0 0 0 1.48-1.92 1.412 1.412 0 0 0-.725-1.269 7.838 7.838 0 0 0-2.3-.775l-1.792-.393a11.2 11.2 0 0 1-3.63-1.269 4.036 4.036 0 0 1-1.673-3.583 4.759 4.759 0 0 1 1.636-3.695 6.979 6.979 0 0 1 4.809-1.471 7.373 7.373 0 0 1 4.52 1.387 4.932 4.932 0 0 1 1.961 4.026H439.6a2.368 2.368 0 0 0-1.335-2.122 4.574 4.574 0 0 0-2.061-.416 3.928 3.928 0 0 0-2.188.539 1.7 1.7 0 0 0-.817 1.505 1.42 1.42 0 0 0 .807 1.325 9.967 9.967 0 0 0 2.2.685l2.9.685a7.382 7.382 0 0 1 2.863 1.2 4.05 4.05 0 0 1 1.481 3.38 4.751 4.751 0 0 1-1.754 3.768 7.406 7.406 0 0 1-4.955 1.5 8.1 8.1 0 0 1-5.142-1.476 4.887 4.887 0 0 1-1.873-4.06zm16.238-7.132v7.379a3.877 3.877 0 0 0 .246 1.572 1.7 1.7 0 0 0 1.71.932 2.236 2.236 0 0 0 2.235-1.325 4.812 4.812 0 0 0 .313-1.9v-6.66h3.245v12.242h-3.11v-1.73q-.045.057-.225.337a2.241 2.241 0 0 1-.424.494 4.451 4.451 0 0 1-1.451.921 4.918 4.918 0 0 1-1.641.247 3.655 3.655 0 0 1-3.651-1.954 7.511 7.511 0 0 1-.526-3.178v-7.379zm18.643 4.392a2.846 2.846 0 0 0-.462-1.236 1.937 1.937 0 0 0-1.678-.741 2.21 2.21 0 0 0-2.218 1.606 6.676 6.676 0 0 0-.314 2.263 6.136 6.136 0 0 0 .314 2.162 2.142 2.142 0 0 0 2.163 1.527 1.908 1.908 0 0 0 1.6-.606 3.024 3.024 0 0 0 .574-1.573h3.268a5.349 5.349 0 0 1-1.057 2.763 5.139 5.139 0 0 1-4.463 2.1 5.224 5.224 0 0 1-4.35-1.752 7.076 7.076 0 0 1-1.394-4.543 7.178 7.178 0 0 1 1.54-4.9 5.363 5.363 0 0 1 4.249-1.752 6.4 6.4 0 0 1 3.772 1.034 4.811 4.811 0 0 1 1.737 3.65zm13.251 0a2.845 2.845 0 0 0-.461-1.236 1.938 1.938 0 0 0-1.678-.741 2.208 2.208 0 0 0-2.218 1.606 6.674 6.674 0 0 0-.315 2.263 6.134 6.134 0 0 0 .315 2.162 2.142 2.142 0 0 0 2.162 1.527 1.905 1.905 0 0 0 1.6-.606 3.007 3.007 0 0 0 .574-1.573h3.269a5.358 5.358 0 0 1-1.057 2.763 5.14 5.14 0 0 1-4.463 2.1 5.222 5.222 0 0 1-4.35-1.752 7.071 7.071 0 0 1-1.395-4.543 7.183 7.183 0 0 1 1.54-4.9 5.367 5.367 0 0 1 4.25-1.752 6.406 6.406 0 0 1 3.772 1.034 4.807 4.807 0 0 1 1.736 3.65zm13.906-4.144a4.975 4.975 0 0 1 2.115 1.812 6.019 6.019 0 0 1 .975 2.53 15.391 15.391 0 0 1 .105 2.429h-8.915a2.939 2.939 0 0 0 1.281 2.584 3.25 3.25 0 0 0 1.764.46 2.485 2.485 0 0 0 2.436-1.4h3.267a4 4 0 0 1-1.186 2.213 5.95 5.95 0 0 1-4.606 1.785 6.675 6.675 0 0 1-4.311-1.506q-1.867-1.506-1.867-4.9a6.625 6.625 0 0 1 1.686-4.878 5.9 5.9 0 0 1 4.377-1.7 6.975 6.975 0 0 1 2.879.571zm-4.788 2.765a3.334 3.334 0 0 0-.853 1.9h5.514a2.675 2.675 0 0 0-.852-1.934 2.808 2.808 0 0 0-1.9-.66 2.535 2.535 0 0 0-1.909.694zm12.544 5.32a2.13 2.13 0 0 0 .44 1.213 2.983 2.983 0 0 0 2.211.64 3.39 3.39 0 0 0 1.507-.28.94.94 0 0 0 .109-1.662 18.3 18.3 0 0 0-3.349-.966 6.953 6.953 0 0 1-2.94-1.292 2.8 2.8 0 0 1-.853-2.2 3.811 3.811 0 0 1 1.334-2.914 5.365 5.365 0 0 1 3.753-1.219 6.89 6.89 0 0 1 3.742.916 3.915 3.915 0 0 1 1.66 3.161h-3.2a1.888 1.888 0 0 0-.349-.977 2.2 2.2 0 0 0-1.8-.651 2.6 2.6 0 0 0-1.493.325.94.94 0 0 0-.445.764.834.834 0 0 0 .474.8 20.346 20.346 0 0 0 3.342.887 6.146 6.146 0 0 1 2.867 1.359 3.086 3.086 0 0 1 .943 2.3 3.717 3.717 0 0 1-1.356 2.97 8.15 8.15 0 0 1-8.462-.067 3.963 3.963 0 0 1-1.379-3.106zm13.251 0a2.13 2.13 0 0 0 .44 1.213 2.983 2.983 0 0 0 2.211.64 3.39 3.39 0 0 0 1.507-.28.94.94 0 0 0 .109-1.662 18.3 18.3 0 0 0-3.349-.966 6.953 6.953 0 0 1-2.94-1.292 2.8 2.8 0 0 1-.853-2.2 3.811 3.811 0 0 1 1.334-2.914 5.364 5.364 0 0 1 3.753-1.219 6.891 6.891 0 0 1 3.742.916 3.915 3.915 0 0 1 1.66 3.161h-3.2a1.888 1.888 0 0 0-.349-.977 2.2 2.2 0 0 0-1.8-.651 2.6 2.6 0 0 0-1.493.325.94.94 0 0 0-.445.764.834.834 0 0 0 .474.8 20.349 20.349 0 0 0 3.342.887 6.145 6.145 0 0 1 2.867 1.359 3.086 3.086 0 0 1 .943 2.3 3.717 3.717 0 0 1-1.356 2.97 8.15 8.15 0 0 1-8.462-.067 3.964 3.964 0 0 1-1.379-3.106zm11.8-12.589h3.521v4.2l-.91 7.72h-1.673l-.932-7.72zm.079 13.252h3.357v3.246h-3.355z" class="prefix__cls-1" data-name="Path 11" transform="translate(-429.732 -1207.78)"/>
    <path id="prefix__Path_12" d="M569.534 1217a13.625 13.625 0 1 1-5.787-7.217l-.52.673a12.777 12.777 0 1 0 5.677 7.35zm-21.668 3.682l8.1 8.331 13.9-17.552-2.352-1.889-11.988 14.791-5.749-6.038z" class="prefix__cls-1" data-name="Path 12" transform="translate(-429.732 -1207.78)"/>
</svg>
